<svg width="54" height="57" viewBox="0 0 54 57" fill="none" xmlns="http://www.w3.org/2000/svg">
<g id="logo-icon.svg" clip-path="url(#clip0_5_1847)">
<g id="Clip path group">
<mask id="mask0_5_1847" style="mask-type:luminance" maskUnits="userSpaceOnUse" x="0" y="0" width="54" height="57">
<g id="clip0">
<path id="Vector" d="M53.5 0.420013H0.5V56.42H53.5V0.420013Z" fill="white"/>
</g>
</mask>
<g mask="url(#mask0_5_1847)">
<g id="Group">
<path id="Vector_2" d="M20.1372 32.6498C20.1372 33.2676 19.8055 33.7683 19.3963 33.7683C18.987 33.7683 18.6553 33.2676 18.6553 32.6498C18.6553 32.0321 18.987 31.5313 19.3963 31.5313C19.8055 31.5313 20.1372 32.0321 20.1372 32.6498Z" fill="#754FFE"/>
<path id="Vector_3" d="M33.8452 32.6498C33.8452 33.2676 34.1769 33.7683 34.5862 33.7683C34.9954 33.7683 35.3271 33.2676 35.3271 32.6498C35.3271 32.0321 34.9954 31.5313 34.5862 31.5313C34.1769 31.5313 33.8452 32.0321 33.8452 32.6498Z" fill="#754FFE"/>
<path id="Vector_4" d="M28.5966 39.9202C27.3617 40.9144 25.6945 40.4173 25.2622 39.9202C25.3857 40.5416 25.855 41.4115 26.9912 41.4115C28.1273 41.4115 28.5349 40.4173 28.5966 39.9202Z" fill="#754FFE"/>
<path id="Vector_5" fill-rule="evenodd" clip-rule="evenodd" d="M24.4189 44.4488C24.4702 44.2142 24.7008 44.0659 24.934 44.1175L29.2969 45.0842C29.53 45.1358 29.6774 45.3679 29.626 45.6025C29.5747 45.8371 29.3441 45.9854 29.111 45.9338L24.7481 44.9671C24.515 44.9155 24.3676 44.6834 24.4189 44.4488Z" fill="#754FFE"/>
<path id="Vector_6" d="M26.9295 54.7714C18.3342 54.8708 12.0277 46.9004 9.94886 42.9028C9.64014 42.3091 9.39317 42.2192 9.20792 42.3435C8.91153 42.5424 9.12556 42.9442 9.20789 43.1513C10.2452 45.5872 11.6572 47.6461 12.2335 48.371C10.2082 51.7514 9.53721 55.1235 9.45488 56.387C12.814 53.0564 16.206 53.2179 17.4821 53.715C27.4852 58.9347 33.0426 55.2685 36.1917 53.715C38.711 52.4722 42.634 54.8957 44.2806 56.2628C44.0831 53.1806 42.4282 49.8002 41.6255 48.4953C42.9222 46.7554 43.9719 44.6427 44.5276 43.5863C44.9722 42.7412 44.8364 42.4056 44.7129 42.3435C44.4165 42.1944 44.0542 42.6542 43.9102 42.9028C42.9839 44.4562 37.6736 54.6471 26.9295 54.7714Z" fill="#754FFE"/>
<path id="Vector_7" fill-rule="evenodd" clip-rule="evenodd" d="M48.0211 10.9307C51.121 14.8838 49.6828 22.4497 48.2604 26.0726C48.2735 26.0769 48.2866 26.0812 48.2997 26.0857L48.2706 26.0867L44.8193 25.8568C44.8193 25.851 44.819 25.8432 44.8193 25.8393C45.4913 18.0247 44.718 14.8955 43.9641 14.3654C34.9375 20.8936 26.8748 18.8186 24.3827 18.1772C23.7042 18.0026 23.4386 17.9342 23.679 18.1748C24.4116 18.9078 26.0786 19.7874 27.2672 20.4145L27.2681 20.415C27.5374 20.5571 27.782 20.6862 27.9857 20.7977C18.187 20.911 14.2477 16.1902 13.0895 14.8023C12.9714 14.6608 12.8822 14.5539 12.8187 14.4903C12.2535 13.9248 9.07378 11.9923 8.07513 15.6769C7.10783 19.2457 7.72043 23.4316 8.04381 25.6412C8.07185 25.8329 8.07517 25.8369 8.07517 25.8993L4.89198 26.0867L4.88368 26.0863C0.651882 16.2938 3.83276 10.8045 6.702 8.74498C6.702 3.93641 12.569 -0.747287 19.9965 0.938796C29.5119 3.65263 32.407 2.75337 35.8126 1.69553C37.1875 1.26848 38.6456 0.815563 40.6561 0.564111C49.8868 -0.590387 52.9935 5.47679 53.3888 8.62008C51.8409 7.72081 49.1654 9.74416 48.0211 10.9307ZM24.5104 3.54774C22.1178 2.71508 15.9532 1.83334 12.7138 5.17142C11.9973 5.90982 11.1535 7.29469 11.1535 7.29469C11.1535 7.29469 9.71791 9.91749 8.59443 8.79344C7.47095 7.66939 10.0924 4.29713 12.1521 3.29794C14.2118 2.29875 19.3299 0.550172 24.5104 3.54774Z" fill="#754FFE"/>
<path id="Vector_8" fill-rule="evenodd" clip-rule="evenodd" d="M20.2257 28.5286H6.44171C5.40362 28.5286 4.56208 29.3488 4.56208 30.3606V36.5892C4.56208 37.601 5.40362 38.4212 6.44171 38.4212H20.2257C21.2638 38.4212 22.1053 37.601 22.1053 36.5892V30.3606C22.1053 29.3488 21.2638 28.5286 20.2257 28.5286ZM6.44171 26.086C4.0195 26.086 2.05591 27.9998 2.05591 30.3606V36.5892C2.05591 38.95 4.0195 40.8638 6.44171 40.8638H20.2257C22.6479 40.8638 24.6115 38.95 24.6115 36.5892V30.3606C24.6115 27.9998 22.6479 26.086 20.2257 26.086H6.44171Z" fill="#754FFE"/>
<path id="Vector_9" d="M0.5 29.864C0.5 29.4958 0.829895 29.1973 1.23684 29.1973H2.09649C2.50344 29.1973 2.83333 29.4958 2.83333 29.864V31.6418C2.83333 32.01 2.50344 32.3085 2.09649 32.3085H1.23684C0.829895 32.3085 0.5 32.01 0.5 31.6418V29.864Z" fill="#754FFE"/>
<path id="Vector_10" fill-rule="evenodd" clip-rule="evenodd" d="M33.5127 28.5286H46.8213C47.8236 28.5286 48.6362 29.3488 48.6362 30.3606V36.5892C48.6362 37.601 47.8236 38.4212 46.8213 38.4212H33.5127C32.5104 38.4212 31.6979 37.601 31.6979 36.5892V30.3606C31.6979 29.3488 32.5104 28.5286 33.5127 28.5286ZM46.8213 26.086C49.16 26.086 51.0559 27.9998 51.0559 30.3606V36.5892C51.0559 38.95 49.16 40.8638 46.8213 40.8638H33.5127C31.174 40.8638 29.2781 38.95 29.2781 36.5892V30.3606C29.2781 27.9998 31.174 26.086 33.5127 26.086H46.8213Z" fill="#754FFE"/>
<path id="Vector_11" d="M53.3889 29.864C53.3889 29.4958 52.9491 29.1973 52.4065 29.1973H51.2603C50.7177 29.1973 50.2778 29.4958 50.2778 29.864V31.6418C50.2778 32.01 50.7177 32.3085 51.2603 32.3085H52.4065C52.9491 32.3085 53.3889 32.01 53.3889 31.6418V29.864Z" fill="#754FFE"/>
<path id="Vector_12" d="M30.0559 31.5873C30.0559 31.1271 29.7003 30.754 29.2616 30.754H24.628C24.1893 30.754 23.8337 31.1271 23.8337 31.5873V33.8095C23.8337 34.2698 24.1893 34.6429 24.628 34.6429H29.2616C29.7003 34.6429 30.0559 34.2698 30.0559 33.8095V31.5873Z" fill="#754FFE"/>
</g>
</g>
</g>
</g>
<defs>
<clipPath id="clip0_5_1847">
<rect width="53" height="56" fill="white" transform="translate(0.5 0.420013)"/>
</clipPath>
</defs>
</svg>
